<svg width="32" height="32" viewBox="0 0 32 32" fill="none" xmlns="http://www.w3.org/2000/svg">
<path d="M16 10.6667C18.2091 10.6667 20 8.87589 20 6.66675C20 4.45761 18.2091 2.66675 16 2.66675C13.7909 2.66675 12 4.45761 12 6.66675C12 8.87589 13.7909 10.6667 16 10.6667ZM16 10.6667V29.3334M16 29.3334C12.4638 29.3334 9.07238 27.9287 6.5719 25.4282C4.07141 22.9277 2.66666 19.5363 2.66666 16.0001H6.66666M16 29.3334C19.5362 29.3334 22.9276 27.9287 25.4281 25.4282C27.9286 22.9277 29.3333 19.5363 29.3333 16.0001H25.3333" stroke="#868892" stroke-width="3" stroke-linecap="round" stroke-linejoin="round"/>
</svg>
