<svg width="22" height="22" viewBox="0 0 22 22" fill="none" xmlns="http://www.w3.org/2000/svg">
<rect width="22" height="22" rx="11" fill="#D5E6E2"/>
<path d="M5.39409 15V7.72727H8.17818C8.70375 7.72727 9.14054 7.81013 9.48855 7.97585C9.83893 8.1392 10.1005 8.36293 10.2733 8.64702C10.4485 8.93111 10.5361 9.25308 10.5361 9.61293C10.5361 9.90885 10.4793 10.1622 10.3657 10.3729C10.252 10.5812 10.0993 10.7505 9.90758 10.8807C9.71582 11.0109 9.50157 11.1044 9.26483 11.1612V11.2322C9.52288 11.2464 9.77027 11.3258 10.007 11.4702C10.2461 11.6122 10.4414 11.8134 10.593 12.0739C10.7445 12.3343 10.8202 12.6491 10.8202 13.0185C10.8202 13.3949 10.7291 13.7334 10.5468 14.0341C10.3645 14.3324 10.0899 14.5679 9.72292 14.7408C9.35597 14.9136 8.89432 15 8.33798 15H5.39409ZM6.71156 13.8991H8.12846C8.60668 13.8991 8.95114 13.808 9.16184 13.6257C9.37491 13.4411 9.48145 13.2043 9.48145 12.9155C9.48145 12.7 9.42818 12.5059 9.32164 12.3331C9.21511 12.1579 9.06359 12.0206 8.8671 11.9212C8.6706 11.8194 8.43623 11.7685 8.16397 11.7685H6.71156V13.8991ZM6.71156 10.8203H8.01483C8.2421 10.8203 8.44688 10.7789 8.62917 10.696C8.81146 10.6108 8.95469 10.4912 9.05886 10.3374C9.16539 10.1811 9.21866 9.99645 9.21866 9.78338C9.21866 9.50166 9.11923 9.26965 8.92037 9.08736C8.72387 8.90507 8.43149 8.81392 8.04324 8.81392H6.71156V10.8203ZM11.9664 15V7.72727H16.6965V8.83168H13.2838V10.8061H16.4514V11.9105H13.2838V13.8956H16.7249V15H11.9664Z" fill="#621C1B"/>
</svg>
